<?xml version="1.0" standalone="no"?><!DOCTYPE svg PUBLIC "-//W3C//DTD SVG 1.1//EN" "http://www.w3.org/Graphics/SVG/1.1/DTD/svg11.dtd"><svg t="1765266033074" class="icon" viewBox="0 0 1024 1024" version="1.1" xmlns="http://www.w3.org/2000/svg" p-id="13052" xmlns:xlink="http://www.w3.org/1999/xlink" width="200" height="200"><path d="M512 1024c-282.7712 0-512-229.2288-512-512S229.2288 0 512 0s512 229.2288 512 512-229.2288 512-512 512z" fill="#2A6FF6" p-id="13053"></path><path d="M358.4 307.2m51.2 0l0 0q51.2 0 51.2 51.2l0 300.8q0 51.2-51.2 51.2l0 0q-51.2 0-51.2-51.2l0-300.8q0-51.2 51.2-51.2Z" fill="#ffffff" p-id="13054"></path><path d="M569.6 307.2m51.2 0l0 0q51.2 0 51.2 51.2l0 300.8q0 51.2-51.2 51.2l0 0q-51.2 0-51.2-51.2l0-300.8q0-51.2 51.2-51.2Z" fill="#ffffff" p-id="13055"></path></svg>